<svg xmlns="http://www.w3.org/2000/svg" xmlns:xlink="http://www.w3.org/1999/xlink" width="500" zoomAndPan="magnify" viewBox="0 0 375 374.999991" height="500" preserveAspectRatio="xMidYMid meet" version="1.0"><path fill="#ffffff" d="M 217.617188 9.429688 C 259.125 27.347656 300.25 45.167969 341.445312 62.820312 C 345.605469 64.601562 347.484375 66.800781 347.40625 71.539062 C 347.125 88.25 347.292969 104.96875 347.238281 121.683594 C 347.214844 127.960938 346.519531 128.382812 340.816406 125.714844 C 330.015625 120.660156 319.292969 115.429688 308.417969 110.535156 C 304.277344 108.667969 302.109375 106.097656 302.9375 101.484375 C 303.800781 96.664062 301.695312 94.230469 297.179688 92.367188 C 280.660156 85.550781 264.316406 78.296875 247.910156 71.203125 C 246.652344 70.65625 245.410156 70.125 243.453125 70.679688 C 243.453125 140.621094 243.453125 210.683594 243.453125 280.667969 C 245.113281 281.304688 245.949219 280.292969 246.851562 279.582031 C 264.390625 265.75 281.894531 251.871094 299.488281 238.109375 C 302.027344 236.125 303.03125 233.9375 302.980469 230.722656 C 302.820312 220.492188 302.828125 210.253906 303.015625 200.023438 C 303.082031 196.460938 302.019531 194.464844 298.503906 193.132812 C 292.9375 191.027344 287.660156 188.171875 282.183594 185.8125 C 279.492188 184.648438 278.269531 182.933594 278.296875 179.949219 C 278.417969 166.988281 278.347656 154.027344 278.457031 141.0625 C 278.5 136.1875 279.625 135.457031 283.941406 137.425781 C 303.320312 146.28125 322.640625 155.265625 342.046875 164.058594 C 345.992188 165.847656 347.425781 168.375 347.394531 172.75 C 347.214844 199.011719 347.246094 225.28125 347.390625 251.546875 C 347.414062 255.679688 346.128906 258.347656 342.777344 260.964844 C 296.457031 297.207031 250.273438 333.621094 204.035156 369.972656 C 202.765625 370.972656 201.835938 372.699219 199.710938 372.316406 C 197.925781 370.929688 198.515625 368.90625 198.515625 367.132812 C 198.488281 247.402344 198.492188 127.671875 198.511719 7.941406 C 198.515625 1.878906 199.167969 1.507812 204.558594 3.871094 C 208.773438 5.714844 213.023438 7.484375 217.617188 9.429688 Z M 217.617188 9.429688 " fill-opacity="1" fill-rule="nonzero"/><path fill="#ffffff" d="M 93.253906 127.628906 C 118.925781 140.765625 144.230469 153.792969 169.660156 166.5625 C 173.4375 168.460938 174.582031 170.75 174.707031 174.847656 C 175.644531 205.875 175.363281 236.910156 174.96875 267.925781 C 174.546875 301.171875 174.875 334.414062 174.5 367.65625 C 174.484375 369.160156 174.824219 370.742188 173.847656 372.128906 C 171.953125 373.054688 171.0625 371.417969 169.949219 370.527344 C 123.46875 333.402344 76.714844 296.628906 29.570312 260.355469 C 26.859375 258.269531 25.753906 255.921875 25.769531 252.542969 C 25.867188 231.402344 25.789062 210.257812 25.84375 189.117188 C 25.855469 183.328125 27.058594 182.632812 32.070312 185.210938 C 43.28125 190.980469 54.414062 196.914062 65.730469 202.476562 C 69.316406 204.242188 70.828125 206.65625 70.738281 210.433594 C 70.582031 216.90625 70.550781 223.382812 70.28125 229.851562 C 70.15625 232.890625 70.421875 235.5 73.078125 237.578125 C 91.199219 251.761719 109.265625 266.019531 127.367188 280.226562 C 127.847656 280.605469 128.5625 280.6875 129.097656 280.882812 C 130.523438 279.644531 130.015625 278.1875 130.019531 276.910156 C 130.109375 251.164062 130.09375 225.417969 130.308594 199.671875 C 130.335938 196.523438 128.625 195.613281 126.441406 194.488281 C 96.59375 179.144531 66.898438 163.496094 36.839844 148.578125 C 28.660156 144.519531 25.09375 139.953125 25.53125 130.367188 C 26.421875 110.800781 25.875 91.164062 25.742188 71.554688 C 25.714844 67.449219 27.058594 65.039062 30.980469 63.351562 C 69.488281 46.8125 107.929688 30.105469 146.394531 13.453125 C 154.210938 10.070312 162.070312 6.78125 169.855469 3.320312 C 173.128906 1.867188 174.613281 2.511719 174.621094 6.277344 C 174.671875 32.355469 175.660156 58.425781 174.882812 84.503906 C 174.8125 86.789062 174.066406 88.28125 171.8125 89.226562 C 159.554688 94.355469 147.332031 99.578125 135.121094 104.828125 C 131.453125 106.40625 130.042969 105.058594 130.046875 101.355469 C 130.050781 91.976562 130.027344 82.601562 129.980469 73.222656 C 129.976562 72.402344 129.707031 71.585938 129.59375 70.960938 C 127.777344 69.625 126.421875 70.6875 125.085938 71.273438 C 108.234375 78.65625 91.433594 86.152344 74.527344 93.394531 C 71.285156 94.785156 69.875 96.507812 70.691406 99.960938 C 70.886719 100.773438 70.957031 101.695312 70.789062 102.503906 C 68.511719 113.527344 73.816406 119.585938 83.753906 122.949219 C 86.953125 124.03125 89.878906 125.917969 93.253906 127.628906 Z M 93.253906 127.628906 " fill-opacity="1" fill-rule="nonzero"/></svg>