<svg xmlns="http://www.w3.org/2000/svg" xmlns:xlink="http://www.w3.org/1999/xlink" width="327" zoomAndPan="magnify" viewBox="0 0 245.25 48" height="64" preserveAspectRatio="xMidYMid meet" version="1.0"><defs><g/><clipPath id="f1c98f3419"><path d="M 2.136719 0 L 236 0 L 236 47.019531 L 2.136719 47.019531 Z M 2.136719 0 " clip-rule="nonzero"/></clipPath><clipPath id="2bd645699e"><path d="M 0.136719 1 L 19 1 L 19 47 L 0.136719 47 Z M 0.136719 1 " clip-rule="nonzero"/></clipPath><clipPath id="94404046ee"><path d="M 46 12 L 233.828125 12 L 233.828125 34 L 46 34 Z M 46 12 " clip-rule="nonzero"/></clipPath><clipPath id="507259b0c2"><rect x="0" width="188" y="0" height="22"/></clipPath><clipPath id="e0e593f3fb"><rect x="0" width="234" y="0" height="48"/></clipPath></defs><g clip-path="url(#f1c98f3419)"><g transform="matrix(1, 0, 0, 1, 2, 0.000000000000005041)"><g clip-path="url(#e0e593f3fb)"><path fill="#000000" d="M 23.90625 1.863281 C 29.003906 4.066406 34.054688 6.257812 39.117188 8.425781 C 39.625 8.644531 39.859375 8.914062 39.847656 9.5 C 39.8125 11.550781 39.832031 13.605469 39.828125 15.660156 C 39.824219 16.433594 39.738281 16.484375 39.039062 16.15625 C 37.710938 15.535156 36.394531 14.890625 35.058594 14.289062 C 34.550781 14.0625 34.285156 13.746094 34.386719 13.179688 C 34.492188 12.585938 34.234375 12.285156 33.679688 12.058594 C 31.648438 11.21875 29.640625 10.328125 27.625 9.457031 C 27.472656 9.390625 27.320312 9.324219 27.078125 9.390625 C 27.078125 17.988281 27.078125 26.601562 27.078125 35.199219 C 27.28125 35.28125 27.386719 35.15625 27.496094 35.066406 C 29.652344 33.367188 31.800781 31.660156 33.960938 29.96875 C 34.273438 29.726562 34.398438 29.457031 34.390625 29.0625 C 34.371094 27.804688 34.371094 26.546875 34.394531 25.289062 C 34.402344 24.851562 34.273438 24.605469 33.839844 24.441406 C 33.15625 24.183594 32.507812 23.832031 31.835938 23.542969 C 31.503906 23.398438 31.355469 23.1875 31.359375 22.824219 C 31.375 21.230469 31.363281 19.636719 31.378906 18.042969 C 31.382812 17.445312 31.523438 17.355469 32.050781 17.597656 C 34.433594 18.683594 36.804688 19.789062 39.1875 20.867188 C 39.675781 21.089844 39.851562 21.398438 39.847656 21.9375 C 39.824219 25.164062 39.828125 28.394531 39.847656 31.621094 C 39.847656 32.128906 39.691406 32.457031 39.28125 32.78125 C 33.589844 37.234375 27.917969 41.710938 22.238281 46.175781 C 22.082031 46.300781 21.964844 46.511719 21.707031 46.464844 C 21.488281 46.292969 21.558594 46.046875 21.558594 45.828125 C 21.554688 31.113281 21.554688 16.398438 21.558594 1.679688 C 21.558594 0.9375 21.636719 0.890625 22.300781 1.179688 C 22.820312 1.40625 23.339844 1.625 23.90625 1.863281 Z M 23.90625 1.863281 " fill-opacity="1" fill-rule="nonzero"/><g clip-path="url(#2bd645699e)"><path fill="#000000" d="M 8.628906 16.390625 C 11.78125 18.007812 14.890625 19.609375 18.015625 21.175781 C 18.476562 21.410156 18.617188 21.691406 18.632812 22.195312 C 18.75 26.007812 18.714844 29.824219 18.667969 33.636719 C 18.613281 37.722656 18.65625 41.808594 18.609375 45.890625 C 18.605469 46.078125 18.648438 46.273438 18.527344 46.441406 C 18.296875 46.554688 18.1875 46.355469 18.050781 46.246094 C 12.339844 41.683594 6.597656 37.164062 0.804688 32.703125 C 0.472656 32.449219 0.335938 32.160156 0.339844 31.746094 C 0.351562 29.144531 0.339844 26.546875 0.347656 23.949219 C 0.351562 23.238281 0.496094 23.152344 1.113281 23.46875 C 2.488281 24.179688 3.859375 24.90625 5.246094 25.589844 C 5.6875 25.808594 5.875 26.105469 5.863281 26.570312 C 5.84375 27.363281 5.839844 28.160156 5.808594 28.957031 C 5.792969 29.328125 5.824219 29.648438 6.148438 29.90625 C 8.375 31.648438 10.59375 33.402344 12.820312 35.148438 C 12.878906 35.191406 12.964844 35.203125 13.03125 35.226562 C 13.207031 35.074219 13.144531 34.894531 13.144531 34.738281 C 13.15625 31.574219 13.152344 28.410156 13.179688 25.246094 C 13.183594 24.859375 12.972656 24.746094 12.707031 24.609375 C 9.039062 22.722656 5.390625 20.800781 1.699219 18.964844 C 0.695312 18.46875 0.257812 17.90625 0.308594 16.726562 C 0.417969 14.324219 0.351562 11.910156 0.335938 9.5 C 0.332031 8.996094 0.496094 8.699219 0.980469 8.492188 C 5.710938 6.457031 10.429688 4.40625 15.15625 2.359375 C 16.117188 1.941406 17.082031 1.539062 18.039062 1.113281 C 18.441406 0.933594 18.621094 1.015625 18.625 1.476562 C 18.628906 4.683594 18.75 7.886719 18.65625 11.089844 C 18.648438 11.371094 18.554688 11.554688 18.277344 11.671875 C 16.773438 12.300781 15.269531 12.945312 13.773438 13.589844 C 13.320312 13.785156 13.148438 13.617188 13.148438 13.164062 C 13.148438 12.011719 13.144531 10.859375 13.140625 9.703125 C 13.140625 9.605469 13.105469 9.503906 13.09375 9.425781 C 12.871094 9.261719 12.703125 9.394531 12.539062 9.464844 C 10.46875 10.371094 8.40625 11.292969 6.328125 12.183594 C 5.929688 12.355469 5.757812 12.566406 5.855469 12.992188 C 5.882812 13.089844 5.890625 13.203125 5.871094 13.304688 C 5.589844 14.660156 6.242188 15.402344 7.460938 15.816406 C 7.855469 15.949219 8.214844 16.183594 8.628906 16.390625 Z M 8.628906 16.390625 " fill-opacity="1" fill-rule="nonzero"/></g><g clip-path="url(#94404046ee)"><g transform="matrix(1, 0, 0, 1, 46, 12)"><g clip-path="url(#507259b0c2)"><g fill="#000000" fill-opacity="1"><g transform="translate(1.169654, 15.833523)"><g><path d="M 4.953125 0.109375 C 4.148438 0.109375 3.425781 -0.0195312 2.78125 -0.28125 C 2.144531 -0.539062 1.632812 -0.925781 1.25 -1.4375 C 0.875 -1.957031 0.675781 -2.578125 0.65625 -3.296875 L 3.515625 -3.296875 C 3.554688 -2.890625 3.695312 -2.578125 3.9375 -2.359375 C 4.175781 -2.148438 4.488281 -2.046875 4.875 -2.046875 C 5.269531 -2.046875 5.582031 -2.132812 5.8125 -2.3125 C 6.050781 -2.5 6.171875 -2.753906 6.171875 -3.078125 C 6.171875 -3.347656 6.078125 -3.570312 5.890625 -3.75 C 5.703125 -3.925781 5.472656 -4.070312 5.203125 -4.1875 C 4.941406 -4.300781 4.566406 -4.429688 4.078125 -4.578125 C 3.367188 -4.796875 2.785156 -5.015625 2.328125 -5.234375 C 1.878906 -5.453125 1.492188 -5.773438 1.171875 -6.203125 C 0.847656 -6.640625 0.6875 -7.203125 0.6875 -7.890625 C 0.6875 -8.910156 1.054688 -9.710938 1.796875 -10.296875 C 2.546875 -10.878906 3.515625 -11.171875 4.703125 -11.171875 C 5.921875 -11.171875 6.898438 -10.878906 7.640625 -10.296875 C 8.378906 -9.710938 8.773438 -8.90625 8.828125 -7.875 L 5.9375 -7.875 C 5.914062 -8.226562 5.78125 -8.503906 5.53125 -8.703125 C 5.289062 -8.910156 4.984375 -9.015625 4.609375 -9.015625 C 4.285156 -9.015625 4.023438 -8.925781 3.828125 -8.75 C 3.628906 -8.582031 3.53125 -8.335938 3.53125 -8.015625 C 3.53125 -7.660156 3.695312 -7.382812 4.03125 -7.1875 C 4.363281 -6.988281 4.882812 -6.773438 5.59375 -6.546875 C 6.3125 -6.304688 6.890625 -6.070312 7.328125 -5.84375 C 7.773438 -5.625 8.160156 -5.304688 8.484375 -4.890625 C 8.804688 -4.472656 8.96875 -3.9375 8.96875 -3.28125 C 8.96875 -2.65625 8.804688 -2.082031 8.484375 -1.5625 C 8.171875 -1.050781 7.710938 -0.644531 7.109375 -0.34375 C 6.503906 -0.0390625 5.785156 0.109375 4.953125 0.109375 Z M 4.953125 0.109375 "/></g></g></g><g fill="#000000" fill-opacity="1"><g transform="translate(16.446983, 15.833523)"><g><path d="M 8.890625 -11.015625 L 8.890625 -8.859375 L 5.984375 -8.859375 L 5.984375 0 L 3.296875 0 L 3.296875 -8.859375 L 0.375 -8.859375 L 0.375 -11.015625 Z M 8.890625 -11.015625 "/></g></g></g><g fill="#000000" fill-opacity="1"><g transform="translate(31.347974, 15.833523)"><g><path d="M 7.828125 -1.9375 L 3.71875 -1.9375 L 3.0625 0 L 0.25 0 L 4.234375 -11.015625 L 7.34375 -11.015625 L 11.328125 0 L 8.484375 0 Z M 7.140625 -4.015625 L 5.765625 -8.046875 L 4.421875 -4.015625 Z M 7.140625 -4.015625 "/></g></g></g><g fill="#000000" fill-opacity="1"><g transform="translate(48.538403, 15.833523)"><g><path d="M 6.59375 0 L 4.296875 -4.15625 L 3.65625 -4.15625 L 3.65625 0 L 0.96875 0 L 0.96875 -11.015625 L 5.46875 -11.015625 C 6.34375 -11.015625 7.082031 -10.863281 7.6875 -10.5625 C 8.300781 -10.257812 8.757812 -9.84375 9.0625 -9.3125 C 9.363281 -8.78125 9.515625 -8.191406 9.515625 -7.546875 C 9.515625 -6.816406 9.304688 -6.160156 8.890625 -5.578125 C 8.484375 -5.003906 7.878906 -4.597656 7.078125 -4.359375 L 9.609375 0 Z M 3.65625 -6.0625 L 5.3125 -6.0625 C 5.8125 -6.0625 6.179688 -6.179688 6.421875 -6.421875 C 6.671875 -6.660156 6.796875 -7 6.796875 -7.4375 C 6.796875 -7.851562 6.671875 -8.179688 6.421875 -8.421875 C 6.179688 -8.660156 5.8125 -8.78125 5.3125 -8.78125 L 3.65625 -8.78125 Z M 3.65625 -6.0625 "/></g></g></g><g fill="#000000" fill-opacity="1"><g transform="translate(64.395933, 15.833523)"><g/></g></g><g fill="#000000" fill-opacity="1"><g transform="translate(73.353792, 15.833523)"><g><path d="M 8.28125 -7.53125 C 8.082031 -7.894531 7.796875 -8.171875 7.421875 -8.359375 C 7.054688 -8.554688 6.625 -8.65625 6.125 -8.65625 C 5.25 -8.65625 4.550781 -8.367188 4.03125 -7.796875 C 3.507812 -7.234375 3.25 -6.472656 3.25 -5.515625 C 3.25 -4.503906 3.519531 -3.710938 4.0625 -3.140625 C 4.613281 -2.578125 5.375 -2.296875 6.34375 -2.296875 C 7 -2.296875 7.550781 -2.460938 8 -2.796875 C 8.457031 -3.128906 8.789062 -3.609375 9 -4.234375 L 5.59375 -4.234375 L 5.59375 -6.21875 L 11.4375 -6.21875 L 11.4375 -3.71875 C 11.238281 -3.050781 10.898438 -2.425781 10.421875 -1.84375 C 9.941406 -1.269531 9.335938 -0.804688 8.609375 -0.453125 C 7.878906 -0.0976562 7.054688 0.078125 6.140625 0.078125 C 5.046875 0.078125 4.070312 -0.15625 3.21875 -0.625 C 2.363281 -1.101562 1.695312 -1.765625 1.21875 -2.609375 C 0.75 -3.460938 0.515625 -4.429688 0.515625 -5.515625 C 0.515625 -6.609375 0.75 -7.578125 1.21875 -8.421875 C 1.695312 -9.273438 2.359375 -9.941406 3.203125 -10.421875 C 4.054688 -10.898438 5.03125 -11.140625 6.125 -11.140625 C 7.4375 -11.140625 8.546875 -10.816406 9.453125 -10.171875 C 10.359375 -9.535156 10.957031 -8.65625 11.25 -7.53125 Z M 8.28125 -7.53125 "/></g></g></g><g fill="#000000" fill-opacity="1"><g transform="translate(90.936242, 15.833523)"><g><path d="M 7.828125 -1.9375 L 3.71875 -1.9375 L 3.0625 0 L 0.25 0 L 4.234375 -11.015625 L 7.34375 -11.015625 L 11.328125 0 L 8.484375 0 Z M 7.140625 -4.015625 L 5.765625 -8.046875 L 4.421875 -4.015625 Z M 7.140625 -4.015625 "/></g></g></g><g fill="#000000" fill-opacity="1"><g transform="translate(108.126672, 15.833523)"><g><path d="M 5.09375 -11.015625 C 6.257812 -11.015625 7.273438 -10.78125 8.140625 -10.3125 C 9.003906 -9.851562 9.675781 -9.207031 10.15625 -8.375 C 10.632812 -7.550781 10.875 -6.59375 10.875 -5.5 C 10.875 -4.425781 10.632812 -3.46875 10.15625 -2.625 C 9.675781 -1.789062 9 -1.144531 8.125 -0.6875 C 7.257812 -0.226562 6.25 0 5.09375 0 L 0.96875 0 L 0.96875 -11.015625 Z M 4.921875 -2.328125 C 5.941406 -2.328125 6.734375 -2.601562 7.296875 -3.15625 C 7.859375 -3.707031 8.140625 -4.488281 8.140625 -5.5 C 8.140625 -6.519531 7.859375 -7.3125 7.296875 -7.875 C 6.734375 -8.4375 5.941406 -8.71875 4.921875 -8.71875 L 3.65625 -8.71875 L 3.65625 -2.328125 Z M 4.921875 -2.328125 "/></g></g></g><g fill="#000000" fill-opacity="1"><g transform="translate(125.160288, 15.833523)"><g><path d="M 8.28125 -7.53125 C 8.082031 -7.894531 7.796875 -8.171875 7.421875 -8.359375 C 7.054688 -8.554688 6.625 -8.65625 6.125 -8.65625 C 5.25 -8.65625 4.550781 -8.367188 4.03125 -7.796875 C 3.507812 -7.234375 3.25 -6.472656 3.25 -5.515625 C 3.25 -4.503906 3.519531 -3.710938 4.0625 -3.140625 C 4.613281 -2.578125 5.375 -2.296875 6.34375 -2.296875 C 7 -2.296875 7.550781 -2.460938 8 -2.796875 C 8.457031 -3.128906 8.789062 -3.609375 9 -4.234375 L 5.59375 -4.234375 L 5.59375 -6.21875 L 11.4375 -6.21875 L 11.4375 -3.71875 C 11.238281 -3.050781 10.898438 -2.425781 10.421875 -1.84375 C 9.941406 -1.269531 9.335938 -0.804688 8.609375 -0.453125 C 7.878906 -0.0976562 7.054688 0.078125 6.140625 0.078125 C 5.046875 0.078125 4.070312 -0.15625 3.21875 -0.625 C 2.363281 -1.101562 1.695312 -1.765625 1.21875 -2.609375 C 0.75 -3.460938 0.515625 -4.429688 0.515625 -5.515625 C 0.515625 -6.609375 0.75 -7.578125 1.21875 -8.421875 C 1.695312 -9.273438 2.359375 -9.941406 3.203125 -10.421875 C 4.054688 -10.898438 5.03125 -11.140625 6.125 -11.140625 C 7.4375 -11.140625 8.546875 -10.816406 9.453125 -10.171875 C 10.359375 -9.535156 10.957031 -8.65625 11.25 -7.53125 Z M 8.28125 -7.53125 "/></g></g></g><g fill="#000000" fill-opacity="1"><g transform="translate(142.742739, 15.833523)"><g><path d="M 3.65625 -8.859375 L 3.65625 -6.640625 L 7.25 -6.640625 L 7.25 -4.5625 L 3.65625 -4.5625 L 3.65625 -2.15625 L 7.71875 -2.15625 L 7.71875 0 L 0.96875 0 L 0.96875 -11.015625 L 7.71875 -11.015625 L 7.71875 -8.859375 Z M 3.65625 -8.859375 "/></g></g></g><g fill="#000000" fill-opacity="1"><g transform="translate(156.859676, 15.833523)"><g><path d="M 8.890625 -11.015625 L 8.890625 -8.859375 L 5.984375 -8.859375 L 5.984375 0 L 3.296875 0 L 3.296875 -8.859375 L 0.375 -8.859375 L 0.375 -11.015625 Z M 8.890625 -11.015625 "/></g></g></g><g fill="#000000" fill-opacity="1"><g transform="translate(171.760667, 15.833523)"><g><path d="M 4.953125 0.109375 C 4.148438 0.109375 3.425781 -0.0195312 2.78125 -0.28125 C 2.144531 -0.539062 1.632812 -0.925781 1.25 -1.4375 C 0.875 -1.957031 0.675781 -2.578125 0.65625 -3.296875 L 3.515625 -3.296875 C 3.554688 -2.890625 3.695312 -2.578125 3.9375 -2.359375 C 4.175781 -2.148438 4.488281 -2.046875 4.875 -2.046875 C 5.269531 -2.046875 5.582031 -2.132812 5.8125 -2.3125 C 6.050781 -2.5 6.171875 -2.753906 6.171875 -3.078125 C 6.171875 -3.347656 6.078125 -3.570312 5.890625 -3.75 C 5.703125 -3.925781 5.472656 -4.070312 5.203125 -4.1875 C 4.941406 -4.300781 4.566406 -4.429688 4.078125 -4.578125 C 3.367188 -4.796875 2.785156 -5.015625 2.328125 -5.234375 C 1.878906 -5.453125 1.492188 -5.773438 1.171875 -6.203125 C 0.847656 -6.640625 0.6875 -7.203125 0.6875 -7.890625 C 0.6875 -8.910156 1.054688 -9.710938 1.796875 -10.296875 C 2.546875 -10.878906 3.515625 -11.171875 4.703125 -11.171875 C 5.921875 -11.171875 6.898438 -10.878906 7.640625 -10.296875 C 8.378906 -9.710938 8.773438 -8.90625 8.828125 -7.875 L 5.9375 -7.875 C 5.914062 -8.226562 5.78125 -8.503906 5.53125 -8.703125 C 5.289062 -8.910156 4.984375 -9.015625 4.609375 -9.015625 C 4.285156 -9.015625 4.023438 -8.925781 3.828125 -8.75 C 3.628906 -8.582031 3.53125 -8.335938 3.53125 -8.015625 C 3.53125 -7.660156 3.695312 -7.382812 4.03125 -7.1875 C 4.363281 -6.988281 4.882812 -6.773438 5.59375 -6.546875 C 6.3125 -6.304688 6.890625 -6.070312 7.328125 -5.84375 C 7.773438 -5.625 8.160156 -5.304688 8.484375 -4.890625 C 8.804688 -4.472656 8.96875 -3.9375 8.96875 -3.28125 C 8.96875 -2.65625 8.804688 -2.082031 8.484375 -1.5625 C 8.171875 -1.050781 7.710938 -0.644531 7.109375 -0.34375 C 6.503906 -0.0390625 5.785156 0.109375 4.953125 0.109375 Z M 4.953125 0.109375 "/></g></g></g></g></g></g></g></g></g></svg>