<svg xmlns="http://www.w3.org/2000/svg" xmlns:xlink="http://www.w3.org/1999/xlink" width="500" zoomAndPan="magnify" viewBox="0 0 375 374.999991" height="500" preserveAspectRatio="xMidYMid meet" version="1.0"><path fill="#000000" d="M 217.476562 9.394531 C 258.976562 27.3125 300.089844 45.132812 341.28125 62.78125 C 345.445312 64.5625 347.320312 66.761719 347.242188 71.503906 C 346.960938 88.210938 347.128906 104.925781 347.074219 121.640625 C 347.050781 127.917969 346.355469 128.34375 340.65625 125.675781 C 329.851562 120.621094 319.132812 115.390625 308.261719 110.492188 C 304.117188 108.628906 301.949219 106.058594 302.777344 101.441406 C 303.644531 96.625 301.539062 94.191406 297.023438 92.328125 C 280.503906 85.511719 264.164062 78.257812 247.761719 71.164062 C 246.503906 70.621094 245.261719 70.085938 243.304688 70.640625 C 243.304688 140.578125 243.304688 210.636719 243.304688 280.613281 C 244.964844 281.253906 245.800781 280.238281 246.703125 279.527344 C 264.242188 265.699219 281.738281 251.820312 299.332031 238.058594 C 301.871094 236.074219 302.875 233.890625 302.824219 230.671875 C 302.660156 220.441406 302.671875 210.207031 302.859375 199.976562 C 302.925781 196.414062 301.863281 194.417969 298.347656 193.085938 C 292.78125 190.980469 287.503906 188.128906 282.03125 185.765625 C 279.339844 184.601562 278.117188 182.886719 278.144531 179.90625 C 278.261719 166.945312 278.191406 153.980469 278.304688 141.019531 C 278.347656 136.144531 279.472656 135.414062 283.785156 137.382812 C 303.164062 146.238281 322.480469 155.222656 341.882812 164.011719 C 345.828125 165.800781 347.261719 168.328125 347.230469 172.703125 C 347.050781 198.96875 347.082031 225.230469 347.226562 251.496094 C 347.25 255.628906 345.964844 258.296875 342.613281 260.914062 C 296.300781 297.152344 250.121094 333.566406 203.894531 369.914062 C 202.625 370.914062 201.695312 372.640625 199.570312 372.257812 C 197.785156 370.871094 198.375 368.847656 198.375 367.074219 C 198.347656 247.351562 198.351562 127.628906 198.371094 7.90625 C 198.375 1.84375 199.027344 1.476562 204.417969 3.835938 C 208.632812 5.683594 212.878906 7.449219 217.476562 9.394531 Z M 217.476562 9.394531 " fill-opacity="1" fill-rule="nonzero"/><path fill="#000000" d="M 93.132812 127.589844 C 118.796875 140.722656 144.097656 153.75 169.523438 166.519531 C 173.300781 168.417969 174.445312 170.707031 174.570312 174.804688 C 175.507812 205.828125 175.226562 236.859375 174.832031 267.875 C 174.410156 301.117188 174.738281 334.359375 174.363281 367.597656 C 174.347656 369.101562 174.6875 370.683594 173.710938 372.070312 C 171.816406 372.996094 170.925781 371.359375 169.8125 370.46875 C 123.339844 333.347656 76.59375 296.574219 29.457031 260.304688 C 26.746094 258.21875 25.640625 255.871094 25.65625 252.492188 C 25.753906 231.351562 25.675781 210.210938 25.726562 189.070312 C 25.742188 183.28125 26.945312 182.585938 31.953125 185.164062 C 43.164062 190.933594 54.296875 196.867188 65.609375 202.429688 C 69.195312 204.195312 70.710938 206.609375 70.617188 210.386719 C 70.460938 216.859375 70.429688 223.335938 70.160156 229.800781 C 70.035156 232.839844 70.300781 235.453125 72.957031 237.527344 C 91.078125 251.710938 109.136719 265.96875 127.238281 280.171875 C 127.71875 280.550781 128.433594 280.632812 128.96875 280.828125 C 130.390625 279.59375 129.882812 278.132812 129.886719 276.855469 C 129.980469 251.113281 129.964844 225.371094 130.179688 199.628906 C 130.207031 196.480469 128.496094 195.566406 126.308594 194.441406 C 96.46875 179.097656 66.777344 163.453125 36.722656 148.535156 C 28.546875 144.476562 24.980469 139.910156 25.417969 130.324219 C 26.308594 110.757812 25.761719 91.125 25.628906 71.519531 C 25.601562 67.410156 26.941406 65 30.863281 63.316406 C 69.371094 46.773438 107.804688 30.070312 146.261719 13.417969 C 154.078125 10.035156 161.9375 6.75 169.71875 3.289062 C 172.992188 1.832031 174.476562 2.480469 174.484375 6.246094 C 174.535156 32.316406 175.523438 58.386719 174.746094 84.464844 C 174.675781 86.75 173.929688 88.242188 171.675781 89.1875 C 159.417969 94.316406 147.199219 99.539062 134.992188 104.789062 C 131.324219 106.367188 129.914062 105.019531 129.914062 101.316406 C 129.921875 91.9375 129.898438 82.5625 129.847656 73.183594 C 129.84375 72.367188 129.574219 71.546875 129.464844 70.921875 C 127.648438 69.585938 126.292969 70.648438 124.953125 71.234375 C 108.109375 78.617188 91.3125 86.113281 74.40625 93.355469 C 71.164062 94.746094 69.753906 96.46875 70.574219 99.921875 C 70.765625 100.734375 70.835938 101.65625 70.667969 102.464844 C 68.390625 113.488281 73.695312 119.546875 83.632812 122.90625 C 86.828125 123.988281 89.753906 125.878906 93.132812 127.589844 Z M 93.132812 127.589844 " fill-opacity="1" fill-rule="nonzero"/></svg>