<svg xmlns="http://www.w3.org/2000/svg" xmlns:xlink="http://www.w3.org/1999/xlink" width="327" zoomAndPan="magnify" viewBox="0 0 245.25 48" height="64" preserveAspectRatio="xMidYMid meet" version="1.0"><defs><g/><clipPath id="7369b74552"><path d="M 2.136719 0 L 236 0 L 236 47 L 2.136719 47 Z M 2.136719 0 " clip-rule="nonzero"/></clipPath><clipPath id="6f18f106b0"><path d="M 21 0.707031 L 40 0.707031 L 40 46.550781 L 21 46.550781 Z M 21 0.707031 " clip-rule="nonzero"/></clipPath><clipPath id="37cbe24fa4"><path d="M 0.136719 0.707031 L 19 0.707031 L 19 46.550781 L 0.136719 46.550781 Z M 0.136719 0.707031 " clip-rule="nonzero"/></clipPath><clipPath id="43dbccc9a5"><path d="M 46 12 L 233.828125 12 L 233.828125 34 L 46 34 Z M 46 12 " clip-rule="nonzero"/></clipPath><clipPath id="a625413134"><rect x="0" width="188" y="0" height="22"/></clipPath><clipPath id="fdbeee3603"><rect x="0" width="234" y="0" height="47"/></clipPath></defs><g clip-path="url(#7369b74552)"><g transform="matrix(1, 0, 0, 1, 2, 0.000000000000005107)"><g clip-path="url(#fdbeee3603)"><g clip-path="url(#6f18f106b0)"><path fill="#ffffff" d="M 23.894531 1.824219 C 28.992188 4.027344 34.042969 6.214844 39.105469 8.382812 C 39.617188 8.601562 39.847656 8.871094 39.835938 9.453125 C 39.800781 11.507812 39.824219 13.558594 39.816406 15.613281 C 39.8125 16.382812 39.726562 16.4375 39.027344 16.109375 C 37.699219 15.488281 36.382812 14.84375 35.046875 14.242188 C 34.539062 14.015625 34.273438 13.699219 34.375 13.132812 C 34.480469 12.539062 34.222656 12.242188 33.667969 12.011719 C 31.636719 11.175781 29.628906 10.285156 27.617188 9.414062 C 27.460938 9.34375 27.308594 9.28125 27.070312 9.347656 C 27.070312 17.9375 27.070312 26.542969 27.070312 35.140625 C 27.273438 35.21875 27.375 35.09375 27.484375 35.007812 C 29.640625 33.308594 31.789062 31.601562 33.949219 29.914062 C 34.261719 29.667969 34.386719 29.402344 34.378906 29.003906 C 34.359375 27.75 34.359375 26.492188 34.382812 25.234375 C 34.390625 24.796875 34.261719 24.550781 33.828125 24.386719 C 33.144531 24.128906 32.496094 23.78125 31.824219 23.488281 C 31.496094 23.347656 31.34375 23.136719 31.347656 22.769531 C 31.363281 21.175781 31.355469 19.585938 31.367188 17.992188 C 31.371094 17.394531 31.511719 17.304688 32.042969 17.546875 C 34.421875 18.632812 36.792969 19.738281 39.179688 20.816406 C 39.664062 21.035156 39.839844 21.347656 39.835938 21.886719 C 39.8125 25.109375 39.816406 28.335938 39.835938 31.5625 C 39.835938 32.070312 39.679688 32.398438 39.269531 32.71875 C 33.578125 37.171875 27.90625 41.644531 22.226562 46.109375 C 22.070312 46.230469 21.957031 46.445312 21.695312 46.398438 C 21.476562 46.226562 21.546875 45.976562 21.546875 45.761719 C 21.546875 31.054688 21.546875 16.347656 21.546875 1.640625 C 21.546875 0.898438 21.628906 0.851562 22.292969 1.140625 C 22.808594 1.367188 23.332031 1.585938 23.894531 1.824219 Z M 23.894531 1.824219 " fill-opacity="1" fill-rule="nonzero"/></g><g clip-path="url(#37cbe24fa4)"><path fill="#ffffff" d="M 8.621094 16.34375 C 11.773438 17.957031 14.882812 19.554688 18.003906 21.125 C 18.46875 21.359375 18.609375 21.640625 18.625 22.144531 C 18.738281 25.953125 18.703125 29.765625 18.65625 33.574219 C 18.605469 37.660156 18.644531 41.742188 18.597656 45.824219 C 18.597656 46.007812 18.640625 46.203125 18.519531 46.375 C 18.285156 46.488281 18.175781 46.285156 18.039062 46.175781 C 12.332031 41.617188 6.589844 37.101562 0.796875 32.644531 C 0.464844 32.390625 0.328125 32.101562 0.332031 31.6875 C 0.34375 29.089844 0.332031 26.492188 0.339844 23.894531 C 0.339844 23.183594 0.488281 23.097656 1.105469 23.414062 C 2.480469 24.125 3.847656 24.851562 5.238281 25.535156 C 5.679688 25.753906 5.867188 26.050781 5.855469 26.515625 C 5.835938 27.308594 5.832031 28.105469 5.796875 28.898438 C 5.78125 29.273438 5.816406 29.59375 6.140625 29.847656 C 8.367188 31.589844 10.585938 33.339844 12.808594 35.085938 C 12.867188 35.132812 12.957031 35.140625 13.023438 35.167969 C 13.199219 35.015625 13.136719 34.835938 13.136719 34.679688 C 13.148438 31.515625 13.144531 28.355469 13.171875 25.191406 C 13.175781 24.804688 12.964844 24.691406 12.695312 24.554688 C 9.03125 22.671875 5.382812 20.75 1.691406 18.914062 C 0.6875 18.417969 0.25 17.855469 0.300781 16.679688 C 0.410156 14.277344 0.34375 11.863281 0.328125 9.457031 C 0.324219 8.953125 0.488281 8.65625 0.972656 8.449219 C 5.699219 6.417969 10.421875 4.363281 15.148438 2.320312 C 16.105469 1.902344 17.074219 1.5 18.027344 1.074219 C 18.429688 0.894531 18.613281 0.976562 18.613281 1.4375 C 18.621094 4.640625 18.742188 7.84375 18.644531 11.046875 C 18.636719 11.328125 18.546875 11.511719 18.269531 11.625 C 16.761719 12.257812 15.261719 12.898438 13.761719 13.542969 C 13.3125 13.738281 13.136719 13.570312 13.140625 13.117188 C 13.140625 11.964844 13.136719 10.8125 13.128906 9.660156 C 13.128906 9.558594 13.097656 9.460938 13.082031 9.382812 C 12.859375 9.21875 12.695312 9.347656 12.53125 9.421875 C 10.460938 10.328125 8.398438 11.25 6.320312 12.136719 C 5.921875 12.308594 5.75 12.519531 5.847656 12.945312 C 5.871094 13.042969 5.882812 13.15625 5.859375 13.257812 C 5.582031 14.609375 6.230469 15.355469 7.453125 15.769531 C 7.847656 15.902344 8.207031 16.132812 8.621094 16.34375 Z M 8.621094 16.34375 " fill-opacity="1" fill-rule="nonzero"/></g><g clip-path="url(#43dbccc9a5)"><g transform="matrix(1, 0, 0, 1, 46, 12)"><g clip-path="url(#a625413134)"><g fill="#ffffff" fill-opacity="1"><g transform="translate(1.169654, 15.833523)"><g><path d="M 4.953125 0.109375 C 4.148438 0.109375 3.425781 -0.0195312 2.78125 -0.28125 C 2.144531 -0.539062 1.632812 -0.925781 1.25 -1.4375 C 0.875 -1.957031 0.675781 -2.578125 0.65625 -3.296875 L 3.515625 -3.296875 C 3.554688 -2.890625 3.695312 -2.578125 3.9375 -2.359375 C 4.175781 -2.148438 4.488281 -2.046875 4.875 -2.046875 C 5.269531 -2.046875 5.582031 -2.132812 5.8125 -2.3125 C 6.050781 -2.5 6.171875 -2.753906 6.171875 -3.078125 C 6.171875 -3.347656 6.078125 -3.570312 5.890625 -3.75 C 5.703125 -3.925781 5.472656 -4.070312 5.203125 -4.1875 C 4.941406 -4.300781 4.566406 -4.429688 4.078125 -4.578125 C 3.367188 -4.796875 2.785156 -5.015625 2.328125 -5.234375 C 1.878906 -5.453125 1.492188 -5.773438 1.171875 -6.203125 C 0.847656 -6.640625 0.6875 -7.203125 0.6875 -7.890625 C 0.6875 -8.910156 1.054688 -9.710938 1.796875 -10.296875 C 2.546875 -10.878906 3.515625 -11.171875 4.703125 -11.171875 C 5.921875 -11.171875 6.898438 -10.878906 7.640625 -10.296875 C 8.378906 -9.710938 8.773438 -8.90625 8.828125 -7.875 L 5.9375 -7.875 C 5.914062 -8.226562 5.78125 -8.503906 5.53125 -8.703125 C 5.289062 -8.910156 4.984375 -9.015625 4.609375 -9.015625 C 4.285156 -9.015625 4.023438 -8.925781 3.828125 -8.75 C 3.628906 -8.582031 3.53125 -8.335938 3.53125 -8.015625 C 3.53125 -7.660156 3.695312 -7.382812 4.03125 -7.1875 C 4.363281 -6.988281 4.882812 -6.773438 5.59375 -6.546875 C 6.3125 -6.304688 6.890625 -6.070312 7.328125 -5.84375 C 7.773438 -5.625 8.160156 -5.304688 8.484375 -4.890625 C 8.804688 -4.472656 8.96875 -3.9375 8.96875 -3.28125 C 8.96875 -2.65625 8.804688 -2.082031 8.484375 -1.5625 C 8.171875 -1.050781 7.710938 -0.644531 7.109375 -0.34375 C 6.503906 -0.0390625 5.785156 0.109375 4.953125 0.109375 Z M 4.953125 0.109375 "/></g></g></g><g fill="#ffffff" fill-opacity="1"><g transform="translate(16.446983, 15.833523)"><g><path d="M 8.890625 -11.015625 L 8.890625 -8.859375 L 5.984375 -8.859375 L 5.984375 0 L 3.296875 0 L 3.296875 -8.859375 L 0.375 -8.859375 L 0.375 -11.015625 Z M 8.890625 -11.015625 "/></g></g></g><g fill="#ffffff" fill-opacity="1"><g transform="translate(31.347974, 15.833523)"><g><path d="M 7.828125 -1.9375 L 3.71875 -1.9375 L 3.0625 0 L 0.25 0 L 4.234375 -11.015625 L 7.34375 -11.015625 L 11.328125 0 L 8.484375 0 Z M 7.140625 -4.015625 L 5.765625 -8.046875 L 4.421875 -4.015625 Z M 7.140625 -4.015625 "/></g></g></g><g fill="#ffffff" fill-opacity="1"><g transform="translate(48.538403, 15.833523)"><g><path d="M 6.59375 0 L 4.296875 -4.15625 L 3.65625 -4.15625 L 3.65625 0 L 0.96875 0 L 0.96875 -11.015625 L 5.46875 -11.015625 C 6.34375 -11.015625 7.082031 -10.863281 7.6875 -10.5625 C 8.300781 -10.257812 8.757812 -9.84375 9.0625 -9.3125 C 9.363281 -8.78125 9.515625 -8.191406 9.515625 -7.546875 C 9.515625 -6.816406 9.304688 -6.160156 8.890625 -5.578125 C 8.484375 -5.003906 7.878906 -4.597656 7.078125 -4.359375 L 9.609375 0 Z M 3.65625 -6.0625 L 5.3125 -6.0625 C 5.8125 -6.0625 6.179688 -6.179688 6.421875 -6.421875 C 6.671875 -6.660156 6.796875 -7 6.796875 -7.4375 C 6.796875 -7.851562 6.671875 -8.179688 6.421875 -8.421875 C 6.179688 -8.660156 5.8125 -8.78125 5.3125 -8.78125 L 3.65625 -8.78125 Z M 3.65625 -6.0625 "/></g></g></g><g fill="#ffffff" fill-opacity="1"><g transform="translate(64.395933, 15.833523)"><g/></g></g><g fill="#ffffff" fill-opacity="1"><g transform="translate(73.353792, 15.833523)"><g><path d="M 8.28125 -7.53125 C 8.082031 -7.894531 7.796875 -8.171875 7.421875 -8.359375 C 7.054688 -8.554688 6.625 -8.65625 6.125 -8.65625 C 5.25 -8.65625 4.550781 -8.367188 4.03125 -7.796875 C 3.507812 -7.234375 3.25 -6.472656 3.25 -5.515625 C 3.25 -4.503906 3.519531 -3.710938 4.0625 -3.140625 C 4.613281 -2.578125 5.375 -2.296875 6.34375 -2.296875 C 7 -2.296875 7.550781 -2.460938 8 -2.796875 C 8.457031 -3.128906 8.789062 -3.609375 9 -4.234375 L 5.59375 -4.234375 L 5.59375 -6.21875 L 11.4375 -6.21875 L 11.4375 -3.71875 C 11.238281 -3.050781 10.898438 -2.425781 10.421875 -1.84375 C 9.941406 -1.269531 9.335938 -0.804688 8.609375 -0.453125 C 7.878906 -0.0976562 7.054688 0.078125 6.140625 0.078125 C 5.046875 0.078125 4.070312 -0.15625 3.21875 -0.625 C 2.363281 -1.101562 1.695312 -1.765625 1.21875 -2.609375 C 0.75 -3.460938 0.515625 -4.429688 0.515625 -5.515625 C 0.515625 -6.609375 0.75 -7.578125 1.21875 -8.421875 C 1.695312 -9.273438 2.359375 -9.941406 3.203125 -10.421875 C 4.054688 -10.898438 5.03125 -11.140625 6.125 -11.140625 C 7.4375 -11.140625 8.546875 -10.816406 9.453125 -10.171875 C 10.359375 -9.535156 10.957031 -8.65625 11.25 -7.53125 Z M 8.28125 -7.53125 "/></g></g></g><g fill="#ffffff" fill-opacity="1"><g transform="translate(90.936242, 15.833523)"><g><path d="M 7.828125 -1.9375 L 3.71875 -1.9375 L 3.0625 0 L 0.25 0 L 4.234375 -11.015625 L 7.34375 -11.015625 L 11.328125 0 L 8.484375 0 Z M 7.140625 -4.015625 L 5.765625 -8.046875 L 4.421875 -4.015625 Z M 7.140625 -4.015625 "/></g></g></g><g fill="#ffffff" fill-opacity="1"><g transform="translate(108.126672, 15.833523)"><g><path d="M 5.09375 -11.015625 C 6.257812 -11.015625 7.273438 -10.78125 8.140625 -10.3125 C 9.003906 -9.851562 9.675781 -9.207031 10.15625 -8.375 C 10.632812 -7.550781 10.875 -6.59375 10.875 -5.5 C 10.875 -4.425781 10.632812 -3.46875 10.15625 -2.625 C 9.675781 -1.789062 9 -1.144531 8.125 -0.6875 C 7.257812 -0.226562 6.25 0 5.09375 0 L 0.96875 0 L 0.96875 -11.015625 Z M 4.921875 -2.328125 C 5.941406 -2.328125 6.734375 -2.601562 7.296875 -3.15625 C 7.859375 -3.707031 8.140625 -4.488281 8.140625 -5.5 C 8.140625 -6.519531 7.859375 -7.3125 7.296875 -7.875 C 6.734375 -8.4375 5.941406 -8.71875 4.921875 -8.71875 L 3.65625 -8.71875 L 3.65625 -2.328125 Z M 4.921875 -2.328125 "/></g></g></g><g fill="#ffffff" fill-opacity="1"><g transform="translate(125.160288, 15.833523)"><g><path d="M 8.28125 -7.53125 C 8.082031 -7.894531 7.796875 -8.171875 7.421875 -8.359375 C 7.054688 -8.554688 6.625 -8.65625 6.125 -8.65625 C 5.25 -8.65625 4.550781 -8.367188 4.03125 -7.796875 C 3.507812 -7.234375 3.25 -6.472656 3.25 -5.515625 C 3.25 -4.503906 3.519531 -3.710938 4.0625 -3.140625 C 4.613281 -2.578125 5.375 -2.296875 6.34375 -2.296875 C 7 -2.296875 7.550781 -2.460938 8 -2.796875 C 8.457031 -3.128906 8.789062 -3.609375 9 -4.234375 L 5.59375 -4.234375 L 5.59375 -6.21875 L 11.4375 -6.21875 L 11.4375 -3.71875 C 11.238281 -3.050781 10.898438 -2.425781 10.421875 -1.84375 C 9.941406 -1.269531 9.335938 -0.804688 8.609375 -0.453125 C 7.878906 -0.0976562 7.054688 0.078125 6.140625 0.078125 C 5.046875 0.078125 4.070312 -0.15625 3.21875 -0.625 C 2.363281 -1.101562 1.695312 -1.765625 1.21875 -2.609375 C 0.75 -3.460938 0.515625 -4.429688 0.515625 -5.515625 C 0.515625 -6.609375 0.75 -7.578125 1.21875 -8.421875 C 1.695312 -9.273438 2.359375 -9.941406 3.203125 -10.421875 C 4.054688 -10.898438 5.03125 -11.140625 6.125 -11.140625 C 7.4375 -11.140625 8.546875 -10.816406 9.453125 -10.171875 C 10.359375 -9.535156 10.957031 -8.65625 11.25 -7.53125 Z M 8.28125 -7.53125 "/></g></g></g><g fill="#ffffff" fill-opacity="1"><g transform="translate(142.742739, 15.833523)"><g><path d="M 3.65625 -8.859375 L 3.65625 -6.640625 L 7.25 -6.640625 L 7.25 -4.5625 L 3.65625 -4.5625 L 3.65625 -2.15625 L 7.71875 -2.15625 L 7.71875 0 L 0.96875 0 L 0.96875 -11.015625 L 7.71875 -11.015625 L 7.71875 -8.859375 Z M 3.65625 -8.859375 "/></g></g></g><g fill="#ffffff" fill-opacity="1"><g transform="translate(156.859676, 15.833523)"><g><path d="M 8.890625 -11.015625 L 8.890625 -8.859375 L 5.984375 -8.859375 L 5.984375 0 L 3.296875 0 L 3.296875 -8.859375 L 0.375 -8.859375 L 0.375 -11.015625 Z M 8.890625 -11.015625 "/></g></g></g><g fill="#ffffff" fill-opacity="1"><g transform="translate(171.760667, 15.833523)"><g><path d="M 4.953125 0.109375 C 4.148438 0.109375 3.425781 -0.0195312 2.78125 -0.28125 C 2.144531 -0.539062 1.632812 -0.925781 1.25 -1.4375 C 0.875 -1.957031 0.675781 -2.578125 0.65625 -3.296875 L 3.515625 -3.296875 C 3.554688 -2.890625 3.695312 -2.578125 3.9375 -2.359375 C 4.175781 -2.148438 4.488281 -2.046875 4.875 -2.046875 C 5.269531 -2.046875 5.582031 -2.132812 5.8125 -2.3125 C 6.050781 -2.5 6.171875 -2.753906 6.171875 -3.078125 C 6.171875 -3.347656 6.078125 -3.570312 5.890625 -3.75 C 5.703125 -3.925781 5.472656 -4.070312 5.203125 -4.1875 C 4.941406 -4.300781 4.566406 -4.429688 4.078125 -4.578125 C 3.367188 -4.796875 2.785156 -5.015625 2.328125 -5.234375 C 1.878906 -5.453125 1.492188 -5.773438 1.171875 -6.203125 C 0.847656 -6.640625 0.6875 -7.203125 0.6875 -7.890625 C 0.6875 -8.910156 1.054688 -9.710938 1.796875 -10.296875 C 2.546875 -10.878906 3.515625 -11.171875 4.703125 -11.171875 C 5.921875 -11.171875 6.898438 -10.878906 7.640625 -10.296875 C 8.378906 -9.710938 8.773438 -8.90625 8.828125 -7.875 L 5.9375 -7.875 C 5.914062 -8.226562 5.78125 -8.503906 5.53125 -8.703125 C 5.289062 -8.910156 4.984375 -9.015625 4.609375 -9.015625 C 4.285156 -9.015625 4.023438 -8.925781 3.828125 -8.75 C 3.628906 -8.582031 3.53125 -8.335938 3.53125 -8.015625 C 3.53125 -7.660156 3.695312 -7.382812 4.03125 -7.1875 C 4.363281 -6.988281 4.882812 -6.773438 5.59375 -6.546875 C 6.3125 -6.304688 6.890625 -6.070312 7.328125 -5.84375 C 7.773438 -5.625 8.160156 -5.304688 8.484375 -4.890625 C 8.804688 -4.472656 8.96875 -3.9375 8.96875 -3.28125 C 8.96875 -2.65625 8.804688 -2.082031 8.484375 -1.5625 C 8.171875 -1.050781 7.710938 -0.644531 7.109375 -0.34375 C 6.503906 -0.0390625 5.785156 0.109375 4.953125 0.109375 Z M 4.953125 0.109375 "/></g></g></g></g></g></g></g></g></g></svg>